<!--retro camera by Tinashe Mugayi from the Noun Project --> <svg xmlns="http://www.w3.org/2000/svg" xmlns:xlink="http://www.w3.org/1999/xlink" version="1.1" x="0px" y="0px" viewBox="0 0 100 125" enable-background="new 0 0 100 100" xml:space="preserve"><rect x="5" y="5.03" fill="none"  width="90" height="90.001"/><g  fill="#E4411D"><path d="M90.041,23.915H42.919v-3.229c0-0.727-0.59-1.316-1.316-1.316H25.911c-0.726,0-1.315,0.59-1.315,1.316v3.229h-1.54V21.14   c0-0.727-0.59-1.316-1.316-1.316h-8.707c-0.727,0-1.316,0.59-1.316,1.316v2.774H9.959c-2.727,0-4.944,2.218-4.944,4.943v46.89   c0,2.725,2.218,4.943,4.944,4.943h80.082c2.726,0,4.944-2.219,4.944-4.943v-46.89C94.985,26.132,92.767,23.915,90.041,23.915z    M27.228,22.002h13.059v3.019H27.228V22.002z M14.349,22.456h6.074v2.565h-6.074V22.456z M72.104,55.922   c0,10.893-8.861,19.754-19.753,19.754c-10.893,0-19.754-8.861-19.754-19.754c0-10.892,8.861-19.752,19.754-19.752   C63.242,36.169,72.104,45.03,72.104,55.922z M92.298,75.748c0,1.244-1.012,2.256-2.257,2.256H9.959   c-1.245,0-2.258-1.012-2.258-2.256v-1.023H42.28c3.001,1.613,6.431,2.531,10.07,2.531c3.639,0,7.068-0.918,10.069-2.531h29.878   V75.748z M92.298,39.333H65.745c-3.664-2.966-8.325-4.744-13.395-4.744c-5.07,0-9.731,1.778-13.396,4.744H7.701V28.858   c0-1.244,1.013-2.258,2.258-2.258h80.082c1.245,0,2.257,1.014,2.257,2.258V39.333z"/><path d="M87.655,27.713H74.911c-0.438,0-0.79,0.354-0.79,0.79v8.12c0,0.436,0.353,0.789,0.79,0.789h12.744   c0.436,0,0.79-0.354,0.79-0.789v-8.12C88.445,28.068,88.091,27.713,87.655,27.713z M86.865,35.833H75.7v-6.54h11.165V35.833z"/><path d="M63.076,27.713h-8.481c-0.438,0-0.79,0.354-0.79,0.79v4.038c0,0.437,0.353,0.79,0.79,0.79h8.481   c0.436,0,0.79-0.354,0.79-0.79v-4.038C63.866,28.068,63.512,27.713,63.076,27.713z M62.286,31.751h-6.902v-2.458h6.902V31.751z"/><path d="M52.351,41.202c-8.118,0-14.722,6.604-14.722,14.72c0,8.117,6.604,14.721,14.722,14.721   c8.116,0,14.721-6.604,14.721-14.721C67.071,47.806,60.467,41.202,52.351,41.202z M59.197,51.955   c-0.461,0.355-1.122,0.27-1.478-0.189c-0.669-0.868-1.515-1.543-2.515-2.006c-3.399-1.574-7.443-0.091-9.018,3.309   c-0.571,1.23-0.759,2.59-0.542,3.928c0.132,0.813,0.404,1.586,0.813,2.301c0.288,0.504,0.112,1.148-0.393,1.436   c-0.165,0.094-0.345,0.139-0.521,0.139c-0.365,0-0.722-0.191-0.915-0.531c-0.533-0.934-0.89-1.945-1.062-3.006   c-0.285-1.754-0.04-3.537,0.709-5.152c2.063-4.452,7.362-6.395,11.814-4.333c1.291,0.599,2.432,1.508,3.297,2.63   C59.742,50.939,59.657,51.6,59.197,51.955z"/></g></svg>
