<!-- retro computer by Tinashe Mugayi from the Noun Project --> <svg xmlns="http://www.w3.org/2000/svg" xmlns:xlink="http://www.w3.org/1999/xlink" version="1.1" x="0px" y="0px" viewBox="0 0 100 125" enable-background="new 0 0 100 100" xml:space="preserve"><rect x="5" y="5.03" fill="none" width="89.998" height="90.002"/><g><path d="M94.625,86.608l-8.429-24.623l-0.449-6.74c-0.009-0.152-0.049-0.303-0.117-0.442l-1.564-3.205l-2.763-41.6   c-0.025-0.385-0.236-0.733-0.564-0.935l-6.237-3.836c-0.188-0.115-0.404-0.176-0.624-0.176H26.121c-0.22,0-0.437,0.061-0.623,0.176   L19.26,9.063c-0.328,0.201-0.539,0.55-0.564,0.935l-2.763,41.6l-1.564,3.205c-0.067,0.138-0.107,0.29-0.118,0.442l-0.447,6.74   l-8.43,24.623c-0.084,0.246-0.086,0.512-0.004,0.76l2.257,6.826c0.161,0.488,0.616,0.816,1.13,0.816h82.486   c0.514,0,0.97-0.328,1.13-0.816l2.258-6.826C94.711,87.12,94.71,86.854,94.625,86.608z M16.599,55.801h66.8l0.38,5.707h-67.56   L16.599,55.801z M15.993,62.936h68.012l7.992,23.345H8.001L15.993,62.936z M21.027,10.791h10.661H68.31h10.66l2.685,40.403H18.344   L21.027,10.791z M90.383,92.632H9.616l-1.627-4.924H92.01L90.383,92.632z"/><path d="M88.397,82.597l-1.863-5.443l-1.889-5.514l-1.893-5.531c-0.1-0.29-0.371-0.483-0.677-0.483h-5.813h-0.043h-5.809   c-0.217,0-0.42,0.098-0.557,0.266c-0.135,0.169-0.188,0.389-0.141,0.6l1.196,5.495l0.006,0.025l1.197,5.49   c0.001,0.008,0.002,0.014,0.004,0.021l1.2,5.508c0.071,0.328,0.361,0.563,0.696,0.563h6.862h6.862c0,0,0.001,0,0.002,0   c0.394,0,0.714-0.32,0.714-0.715C88.455,82.778,88.434,82.683,88.397,82.597z M72.499,72.565h4.748l1.145,4.086H73.39   L72.499,72.565z M78.73,72.565h4.723l1.398,4.086h-4.977L78.73,72.565z M81.566,67.054l1.398,4.084H78.33l-1.144-4.084H81.566z    M75.703,67.054l1.145,4.084h-4.659l-0.891-4.084H75.703z M74.591,82.163l-0.89-4.084h5.09l1.145,4.084H74.591z M81.419,82.163   l-1.145-4.084h5.066l1.398,4.084H81.419z"/><path d="M78.967,47.718l-2.229-33.556c-0.016-0.25-0.224-0.444-0.475-0.444H23.735c-0.251,0-0.458,0.194-0.476,0.444l-2.231,33.599   c-0.008,0.132,0.037,0.261,0.128,0.357c0.09,0.096,0.215,0.15,0.348,0.15h56.99c0.001,0,0.002,0,0.003,0   c0.263,0,0.476-0.214,0.476-0.477C78.973,47.768,78.97,47.742,78.967,47.718z M67.915,40.041c-0.201,1.723-1.886,3.347-3.602,3.476   c-4.743,0.339-9.56,0.512-14.314,0.512s-9.57-0.173-14.312-0.512c-1.72-0.129-3.403-1.753-3.604-3.473   c-0.681-6.091-0.681-12.012,0-18.1c0.201-1.722,1.884-3.346,3.602-3.475c4.743-0.34,9.559-0.512,14.313-0.512   s9.571,0.172,14.313,0.511c1.718,0.13,3.402,1.754,3.604,3.473C68.595,28.032,68.595,33.953,67.915,40.041z"/><path d="M60.488,77.3c0-0.004,0-0.01-0.001-0.014l-0.515-5.508l-0.514-5.506c-0.034-0.367-0.343-0.647-0.711-0.647H52.92   c-0.01,0-0.019,0-0.027,0h-5.788c-0.008,0-0.016,0-0.024,0h-5.829h-5.805h-0.049h-5.774h-0.058h-5.787h-0.043h-5.814   c-0.305,0-0.576,0.193-0.675,0.483l-1.894,5.531l-1.888,5.514l-1.881,5.494c-0.074,0.217-0.039,0.457,0.095,0.645   c0.134,0.189,0.35,0.301,0.581,0.301h6.862h6.861h6.862h6.861h6.839c0.008,0,0.016,0,0.023,0h6.86c0.008,0,0.016,0,0.022,0h6.84   c0.201,0,0.393-0.086,0.527-0.234s0.202-0.346,0.184-0.547L60.488,77.3z M22.751,72.565h4.747l-0.89,4.086h-5.002L22.751,72.565z    M28.961,72.565h4.766l-0.635,4.086H28.07L28.961,72.565z M35.172,72.565h4.78l-0.382,4.086h-5.034L35.172,72.565z M41.386,72.565   h4.789l-0.127,4.086h-5.043L41.386,72.565z M47.604,72.565h4.792l0.127,4.086h-5.046L47.604,72.565z M47.775,67.054h4.448   l0.127,4.084h-4.702L47.775,67.054z M53.823,72.565h4.789l0.381,4.086h-5.042L53.823,72.565z M58.098,67.054l0.382,4.084h-4.7   l-0.128-4.084H58.098z M46.22,71.138h-4.7l0.381-4.084h4.445L46.22,71.138z M40.086,71.138h-4.691l0.635-4.084h4.438L40.086,71.138   z M33.949,71.138h-4.678l0.89-4.084h4.423L33.949,71.138z M27.81,71.138h-4.658l1.144-4.084H28.7L27.81,71.138z M18.432,67.054   h4.381l-1.145,4.084h-4.635L18.432,67.054z M16.545,72.565h4.724l-1.145,4.086h-4.978L16.545,72.565z M14.657,78.079h5.067   l-1.145,4.084h-5.321L14.657,78.079z M21.207,78.079h5.09l-0.889,4.084h-5.346L21.207,78.079z M27.759,78.079h5.109l-0.635,4.084   h-5.364L27.759,78.079z M34.313,78.079h5.124l-0.382,4.084h-5.377L34.313,78.079z M40.871,78.079h5.132l-0.126,4.084H40.49   L40.871,78.079z M47.305,82.163l0.128-4.084h5.134l0.128,4.084H47.305z M54.122,82.163l-0.127-4.084h5.132l0.382,4.084H54.122z"/></g></svg>
