<!--Vintage TV by Tinashe Mugayi from the Noun Project --><svg xmlns="http://www.w3.org/2000/svg" xmlns:xlink="http://www.w3.org/1999/xlink" version="1.1" x="0px" y="0px" viewBox="0 0 100 125" enable-background="new 0 0 100 100" xml:space="preserve"><rect x="5.001" y="5" fill="none" width="89.999" height="90"/><g fill="#4296AC"><path d="M67.994,34.835c-8.6-1.024-16.877-1.522-25.302-1.522c-8.426,0-16.7,0.498-25.299,1.522   c-2.761,0.333-5.244,2.796-5.532,5.492c-1.29,12.149-1.29,24.47,0,36.62c0.289,2.697,2.771,5.168,5.537,5.508   c8.596,1.016,16.869,1.51,25.295,1.51c8.425,0,16.702-0.494,25.302-1.51c2.766-0.34,5.252-2.811,5.541-5.512   c1.275-12.146,1.273-24.465,0-36.617C73.246,37.632,70.76,35.169,67.994,34.835z M72.117,76.793   c-0.221,2.043-2.188,3.986-4.293,4.246c-8.541,1.008-16.764,1.498-25.132,1.498c-8.369,0-16.589-0.49-25.125-1.498   c-2.106-0.26-4.069-2.203-4.288-4.244C12,64.744,12,52.527,13.28,40.479c0.218-2.037,2.18-3.973,4.283-4.227   c8.541-1.017,16.76-1.512,25.129-1.512s16.589,0.495,25.132,1.512c2.107,0.255,4.072,2.19,4.291,4.225   C73.381,52.527,73.381,64.746,72.117,76.793z"/><path d="M67.711,37.219c-8.508-1.014-16.689-1.506-25.019-1.506s-16.511,0.492-25.012,1.505c-1.629,0.197-3.266,1.799-3.434,3.363   c-1.271,11.981-1.272,24.13,0,36.108c0.168,1.572,1.803,3.184,3.432,3.383c8.501,1.004,16.684,1.492,25.013,1.492   c8.33,0,16.512-0.488,25.01-1.49c1.637-0.201,3.281-1.813,3.447-3.381c1.258-11.982,1.258-24.131,0-36.11   C70.982,39.019,69.342,37.416,67.711,37.219z M70.203,76.594c-0.121,1.133-1.418,2.389-2.613,2.535   c-8.463,0.998-16.606,1.484-24.898,1.484c-8.292,0-16.437-0.486-24.899-1.486c-1.191-0.145-2.478-1.402-2.6-2.537   c-1.264-11.914-1.264-23.994,0-35.908c0.121-1.128,1.409-2.375,2.602-2.519c8.462-1.008,16.606-1.498,24.897-1.498   c8.291,0,16.437,0.49,24.906,1.499c1.193,0.144,2.484,1.393,2.605,2.52C71.455,52.596,71.455,64.678,70.203,76.594z"/><path d="M68.996,40.798c-0.078-0.569-0.93-1.36-1.543-1.434c-8.418-1.002-16.517-1.49-24.761-1.49   c-8.244,0-16.34,0.488-24.752,1.489c-0.625,0.076-1.459,0.851-1.541,1.429c-0.001,0.005-0.001,0.01-0.001,0.016   c-1.256,11.83-1.257,23.826-0.001,35.65c0,0.004,0,0.01,0.001,0.014c0.076,0.576,0.92,1.377,1.535,1.453   c8.417,0.992,16.516,1.477,24.759,1.477c8.247,0,16.34-0.482,24.746-1.477c0.668-0.08,1.484-0.914,1.559-1.441   c0-0.006,0.002-0.01,0.002-0.016c1.242-11.832,1.244-23.826,0-35.654C68.998,40.81,68.998,40.804,68.996,40.798z"/><path d="M83.533,44.132c2.982,0,5.41-2.427,5.41-5.41c0-2.982-2.428-5.409-5.41-5.409s-5.408,2.426-5.408,5.409   C78.125,41.705,80.551,44.132,83.533,44.132z M81.896,34.576c0.215-0.148,0.512-0.093,0.662,0.125l2.037,2.982   c0.148,0.216,0.094,0.513-0.123,0.661c-0.084,0.056-0.176,0.083-0.27,0.083c-0.15,0-0.299-0.072-0.391-0.207l-2.041-2.982   C81.623,35.021,81.678,34.724,81.896,34.576z M80.586,36.047c-0.301,0.569-0.473,1.217-0.473,1.904c0,2.255,1.834,4.09,4.09,4.09   c0.891,0,1.713-0.287,2.387-0.771c-0.73,0.876-1.83,1.435-3.057,1.435c-2.197,0-3.982-1.786-3.982-3.982   C79.551,37.694,79.943,36.755,80.586,36.047z"/><path d="M83.279,71.582c-2.98,0-5.408,2.428-5.408,5.41s2.428,5.41,5.408,5.41c2.982,0,5.41-2.428,5.41-5.41   S86.262,71.582,83.279,71.582z M83.279,80.975c-2.195,0-3.98-1.787-3.98-3.982c0-1.029,0.393-1.967,1.035-2.674   c-0.301,0.568-0.473,1.215-0.473,1.902c0,2.256,1.834,4.09,4.09,4.09c0.891,0,1.713-0.285,2.387-0.771   C85.607,80.416,84.506,80.975,83.279,80.975z M87.797,74.83c0.09,0.246-0.039,0.52-0.283,0.609l-3.4,1.229   c-0.053,0.02-0.107,0.029-0.162,0.029c-0.195,0-0.379-0.121-0.447-0.314c-0.09-0.246,0.039-0.52,0.285-0.609l3.398-1.23   C87.436,74.455,87.709,74.582,87.797,74.83z"/><path d="M78.482,48.979h2.162c0.395,0,0.715-0.32,0.715-0.714c0-0.394-0.32-0.713-0.715-0.713h-2.162   c-0.393,0-0.713,0.319-0.713,0.713C77.77,48.659,78.09,48.979,78.482,48.979z"/><path d="M88.582,47.552H86.42c-0.393,0-0.713,0.319-0.713,0.713c0,0.394,0.32,0.714,0.713,0.714h2.162   c0.395,0,0.713-0.32,0.713-0.714C89.295,47.871,88.977,47.552,88.582,47.552z"/><path d="M88.582,52.348h-10.1c-0.393,0-0.713,0.32-0.713,0.713c0,0.395,0.32,0.713,0.713,0.713h10.1   c0.395,0,0.713-0.318,0.713-0.713C89.295,52.668,88.977,52.348,88.582,52.348z"/><path d="M88.582,57.145h-10.1c-0.393,0-0.713,0.318-0.713,0.713s0.32,0.713,0.713,0.713h10.1c0.395,0,0.713-0.318,0.713-0.713   S88.977,57.145,88.582,57.145z"/><path d="M88.582,61.939h-10.1c-0.393,0-0.713,0.32-0.713,0.715c0,0.393,0.32,0.713,0.713,0.713h10.1   c0.395,0,0.713-0.32,0.713-0.713C89.295,62.26,88.977,61.939,88.582,61.939z"/><path d="M88.582,66.736h-10.1c-0.393,0-0.713,0.318-0.713,0.713s0.32,0.713,0.713,0.713h10.1c0.395,0,0.713-0.318,0.713-0.713   S88.977,66.736,88.582,66.736z"/><path d="M93.9,29.227l-0.006-0.075c-0.039-0.594-0.516-1.072-1.115-1.109c-3.703-0.223-7.443-0.419-11.129-0.586   c-0.578-0.895-1.324-1.648-2.182-2.231L93.984,7.102c0.246-0.307,0.197-0.756-0.111-1.002s-0.756-0.197-1.002,0.11L78.199,24.527   c-0.973-0.422-2.035-0.652-3.135-0.652c-0.523,0-1.035,0.052-1.535,0.151L65.287,6.16c-0.166-0.358-0.59-0.514-0.949-0.349   c-0.355,0.165-0.514,0.589-0.348,0.947l8.156,17.676c-1.313,0.524-2.465,1.399-3.34,2.556c-4.91-0.135-9.818-0.217-14.594-0.247   C52.814,26.734,51.398,26.73,50,26.73c-1.398,0-2.815,0.004-4.213,0.013c-12.524,0.076-25.5,0.514-38.565,1.3   c-0.602,0.037-1.076,0.515-1.115,1.109L6.1,29.227c-0.383,4.52-2.184,28.588,0.007,58.588c0.043,0.594,0.519,1.063,1.113,1.1   c2.232,0.137,4.528,0.268,6.841,0.385v3.768c0,0.656,0.532,1.189,1.189,1.189h69.5c0.656,0,1.189-0.533,1.189-1.189v-3.768   c2.313-0.117,4.607-0.248,6.84-0.385c0.594-0.037,1.07-0.506,1.115-1.1C96.084,57.814,94.283,33.747,93.9,29.227z M75.064,26.318   c1.672,0,3.225,0.769,4.24,2.054c-2.732-0.114-5.484-0.214-8.223-0.299C72.098,26.961,73.527,26.318,75.064,26.318z M83.561,91.877   H16.44v-3.441c9.775,0.469,19.612,0.734,29.351,0.793c1.396,0.01,2.803,0.014,4.209,0.014c1.406,0,2.812-0.004,4.21-0.014   c9.738-0.059,19.574-0.324,29.35-0.793V91.877z M91.598,86.572c-12.406,0.74-24.98,1.156-37.396,1.23   c-2.787,0.018-5.615,0.018-8.402,0c-12.417-0.074-24.992-0.49-37.396-1.23c-1.949-27.797-0.423-50.85-0.008-56.216   c12.674-0.746,25.253-1.161,37.408-1.234c1.392-0.009,2.805-0.013,4.198-0.013c1.392,0,2.804,0.004,4.199,0.013   c4.59,0.028,9.301,0.106,14.02,0.231c0.088,0.043,0.188,0.068,0.289,0.071l0.949,0.027c3.775,0.107,7.6,0.246,11.365,0.414   l0.949,0.042c0.012,0,0.02,0.001,0.031,0.001c0.002,0,0.002,0,0.002,0c0.094,0,0.182-0.018,0.262-0.05   c3.164,0.146,6.361,0.312,9.537,0.499C92.02,35.723,93.547,58.775,91.598,86.572z"/></g></svg>
